# xmcd
#
# Track frame offsets: 
#        150
#        14285
#        28452
#        49295
#        69135
#        81422
#        98622
#        122490
#        140052
#        157500
#        175407
#        191667
#        206955
#        226710
#
# Disc length: 3215 seconds
#
# Revision: 3
# Processed by: cddbd v1.5.2PL0 Copyright (c) Steve Scherf et al.
# Submitted via: ExactAudioCopyFreeDBPlugin 1.0
#
DISCID=b90c8d0e
DTITLE=The Kinsey Report - Crossing Bridges
DYEAR=1993
DGENRE=Blues
TTITLE0=Too Early To Tell
TTITLE1=I Take What I Want
TTITLE2=She's Gone
TTITLE3=Midnight Drive
TTITLE4=Strange Things
TTITLE5=Release Yourself
TTITLE6=Women
TTITLE7=Chicken Heads
TTITLE8=One Too Many
TTITLE9=Key To Your Heart
TTITLE10=Love Is Real
TTITLE11=My Kind Of Woman
TTITLE12=Dancin' With The Beast
TTITLE13=I Take What I Want (Version 2)
EXTD=
EXTT0=
EXTT1=
EXTT2=
EXTT3=
EXTT4=
EXTT5=
EXTT6=
EXTT7=
EXTT8=
EXTT9=
EXTT10=
EXTT11=
EXTT12=
EXTT13=
PLAYORDER=
